<?xml version="1.0" encoding="UTF-8" standalone="no"?>
<!DOCTYPE svg PUBLIC "-//W3C//DTD SVG 1.1//EN"
 "http://www.w3.org/Graphics/SVG/1.1/DTD/svg11.dtd">
<!-- Generated by graphviz version 2.43.0 (0)
 -->
<!-- Pages: 1 -->
<svg width="448pt" height="332pt"
 viewBox="0.00 0.00 447.50 332.00" xmlns="http://www.w3.org/2000/svg" xmlns:xlink="http://www.w3.org/1999/xlink">
<g id="graph0" class="graph" transform="scale(1 1) rotate(0) translate(4 328)">
<polygon fill="white" stroke="transparent" points="-4,4 -4,-328 443.5,-328 443.5,4 -4,4"/>
<!-- UI (CLI with subcommands) -->
<g id="node1" class="node">
<title>UI (CLI with subcommands)</title>
<polygon fill="none" stroke="black" points="385.5,-324 209.5,-324 209.5,-288 385.5,-288 385.5,-324"/>
<text text-anchor="middle" x="297.5" y="-302.3" font-family="Times,serif" font-size="14.00">UI (CLI with subcommands)</text>
</g>
<!-- Go API (doc, chat, etc) -->
<g id="node2" class="node">
<title>Go API (doc, chat, etc)</title>
<polygon fill="none" stroke="black" points="369,-252 226,-252 226,-216 369,-216 369,-252"/>
<text text-anchor="middle" x="297.5" y="-230.3" font-family="Times,serif" font-size="14.00">Go API (doc, chat, etc)</text>
</g>
<!-- UI (CLI with subcommands)&#45;&gt;Go API (doc, chat, etc) -->
<g id="edge1" class="edge">
<title>UI (CLI with subcommands)&#45;&gt;Go API (doc, chat, etc)</title>
<path fill="none" stroke="black" d="M297.5,-287.7C297.5,-279.98 297.5,-270.71 297.5,-262.11"/>
<polygon fill="black" stroke="black" points="301,-262.1 297.5,-252.1 294,-262.1 301,-262.1"/>
</g>
<!-- context chunking/embedding -->
<g id="node3" class="node">
<title>context chunking/embedding</title>
<polygon fill="none" stroke="black" points="175,-180 0,-180 0,-144 175,-144 175,-180"/>
<text text-anchor="middle" x="87.5" y="-158.3" font-family="Times,serif" font-size="14.00">context chunking/embedding</text>
</g>
<!-- Go API (doc, chat, etc)&#45;&gt;context chunking/embedding -->
<g id="edge2" class="edge">
<title>Go API (doc, chat, etc)&#45;&gt;context chunking/embedding</title>
<path fill="none" stroke="black" d="M246.4,-215.97C216.93,-206.14 179.69,-193.73 148.67,-183.39"/>
<polygon fill="black" stroke="black" points="149.43,-179.95 138.83,-180.11 147.21,-186.59 149.43,-179.95"/>
</g>
<!-- cosign similarity search for context -->
<g id="node4" class="node">
<title>cosign similarity search for context</title>
<polygon fill="none" stroke="black" points="402,-180 193,-180 193,-144 402,-144 402,-180"/>
<text text-anchor="middle" x="297.5" y="-158.3" font-family="Times,serif" font-size="14.00">cosign similarity search for context</text>
</g>
<!-- Go API (doc, chat, etc)&#45;&gt;cosign similarity search for context -->
<g id="edge3" class="edge">
<title>Go API (doc, chat, etc)&#45;&gt;cosign similarity search for context</title>
<path fill="none" stroke="black" d="M297.5,-215.7C297.5,-207.98 297.5,-198.71 297.5,-190.11"/>
<polygon fill="black" stroke="black" points="301,-190.1 297.5,-180.1 294,-190.1 301,-190.1"/>
</g>
<!-- OpenAI GPT&#45;4 -->
<g id="node5" class="node">
<title>OpenAI GPT&#45;4</title>
<polygon fill="none" stroke="black" points="439.5,-108 339.5,-108 339.5,-72 439.5,-72 439.5,-108"/>
<text text-anchor="middle" x="389.5" y="-86.3" font-family="Times,serif" font-size="14.00">OpenAI GPT&#45;4</text>
</g>
<!-- Go API (doc, chat, etc)&#45;&gt;OpenAI GPT&#45;4 -->
<g id="edge4" class="edge">
<title>Go API (doc, chat, etc)&#45;&gt;OpenAI GPT&#45;4</title>
<path fill="none" stroke="black" d="M365.81,-215.94C383.71,-208.03 400.94,-196.56 411.5,-180 423.66,-160.94 415.56,-135.64 405.93,-116.89"/>
<polygon fill="black" stroke="black" points="408.92,-115.06 401.01,-108.01 402.8,-118.45 408.92,-115.06"/>
</g>
<!-- OpenAI ADA&#45;002 -->
<g id="node6" class="node">
<title>OpenAI ADA&#45;002</title>
<polygon fill="none" stroke="black" points="146,-108 29,-108 29,-72 146,-72 146,-108"/>
<text text-anchor="middle" x="87.5" y="-86.3" font-family="Times,serif" font-size="14.00">OpenAI ADA&#45;002</text>
</g>
<!-- context chunking/embedding&#45;&gt;OpenAI ADA&#45;002 -->
<g id="edge5" class="edge">
<title>context chunking/embedding&#45;&gt;OpenAI ADA&#45;002</title>
<path fill="none" stroke="black" d="M87.5,-143.7C87.5,-135.98 87.5,-126.71 87.5,-118.11"/>
<polygon fill="black" stroke="black" points="91,-118.1 87.5,-108.1 84,-118.1 91,-118.1"/>
</g>
<!-- vector db -->
<g id="node7" class="node">
<title>vector db</title>
<polygon fill="none" stroke="black" points="281.5,-108 213.5,-108 213.5,-72 281.5,-72 281.5,-108"/>
<text text-anchor="middle" x="247.5" y="-86.3" font-family="Times,serif" font-size="14.00">vector db</text>
</g>
<!-- context chunking/embedding&#45;&gt;vector db -->
<g id="edge6" class="edge">
<title>context chunking/embedding&#45;&gt;vector db</title>
<path fill="none" stroke="black" d="M126.64,-143.88C150.08,-133.62 179.92,-120.57 204.08,-110"/>
<polygon fill="black" stroke="black" points="205.62,-113.14 213.38,-105.93 202.81,-106.73 205.62,-113.14"/>
</g>
<!-- cosign similarity search for context&#45;&gt;OpenAI GPT&#45;4 -->
<g id="edge8" class="edge">
<title>cosign similarity search for context&#45;&gt;OpenAI GPT&#45;4</title>
<path fill="none" stroke="black" d="M320.24,-143.7C331.94,-134.8 346.36,-123.82 359.01,-114.2"/>
<polygon fill="black" stroke="black" points="361.18,-116.94 367.02,-108.1 356.94,-111.37 361.18,-116.94"/>
</g>
<!-- cosign similarity search for context&#45;&gt;vector db -->
<g id="edge7" class="edge">
<title>cosign similarity search for context&#45;&gt;vector db</title>
<path fill="none" stroke="black" d="M285.14,-143.7C279.27,-135.47 272.13,-125.48 265.66,-116.42"/>
<polygon fill="black" stroke="black" points="268.38,-114.21 259.72,-108.1 262.68,-118.28 268.38,-114.21"/>
</g>
<!-- key/value db (JSON .grok file) -->
<g id="node8" class="node">
<title>key/value db (JSON .grok file)</title>
<polygon fill="none" stroke="black" points="340,-36 155,-36 155,0 340,0 340,-36"/>
<text text-anchor="middle" x="247.5" y="-14.3" font-family="Times,serif" font-size="14.00">key/value db (JSON .grok file)</text>
</g>
<!-- vector db&#45;&gt;key/value db (JSON .grok file) -->
<g id="edge9" class="edge">
<title>vector db&#45;&gt;key/value db (JSON .grok file)</title>
<path fill="none" stroke="black" d="M247.5,-71.7C247.5,-63.98 247.5,-54.71 247.5,-46.11"/>
<polygon fill="black" stroke="black" points="251,-46.1 247.5,-36.1 244,-46.1 251,-46.1"/>
</g>
</g>
</svg>
